# xmcd CD database file
#
# Track frame offsets:
#	150
#	11342
#	29467
#	44581
#	63870
#	84133
#	104247
#
# Disc length: 1581 seconds
#
# Revision: 0
# Processed by: cddbd v1.5.2PL0 Copyright (c) Steve Scherf et al.
# Submitted via: CDex 1.51
#
DISCID=51062b07
DTITLE=MADé J - Démo
DYEAR=2007
DGENRE=Blues
TTITLE0=Miss May
TTITLE1=Memphis Train
TTITLE2=It Goes On
TTITLE3=Take Me Home
TTITLE4=Mexico
TTITLE5=Somewhere Between
TTITLE6=Train Away From Gone
EXTD=YEAR: 2007
EXTT0=
EXTT1=
EXTT2=
EXTT3=
EXTT4=
EXTT5=
EXTT6=
PLAYORDER=
